<svg width="35" height="43" viewBox="0 0 35 43" xmlns="http://www.w3.org/2000/svg">
  <g opacity="0.56" fill="#464646">
    <path d="M15.1899 12.513C15.1899 11.3091 14.2139 10.3331 13.01 10.3331C11.8061 10.3331 10.8301 11.3091 10.8301 12.513C10.8301 13.7169 11.8061 14.6929 13.01 14.6929C14.2139 14.6929 15.1899 13.7169 15.1899 12.513Z"/>
    <path d="M24.9145 12.513C24.9145 11.3091 23.9385 10.3331 22.7346 10.3331C21.5307 10.3331 20.5547 11.3091 20.5547 12.513C20.5547 13.7169 21.5307 14.6929 22.7346 14.6929C23.9385 14.6929 24.9145 13.7169 24.9145 12.513Z"/>
    <path d="M22.9029 24.4184C22.9029 23.0263 20.6506 17.7111 17.8723 17.7111C15.094 17.7111 12.8418 23.0263 12.8418 24.4184C12.8418 24.4184 15.094 24.4185 17.8723 24.4185C20.6506 24.4185 22.9029 24.4184 22.9029 24.4184Z"/>
    <path d="M0 37.9787C0 35.2369 2.2227 33.0142 4.96454 33.0142H35V35.4964H4.96454C3.59362 35.4964 2.48227 36.6078 2.48227 37.9787C2.48227 39.3496 3.59362 40.461 4.96454 40.461H35V42.9432H4.96454C2.2227 42.9432 0 40.7205 0 37.9787Z"/>
    <path d="M35 1.24119V34.2554H32.5176V1.24119H35Z"/>
    <path d="M0 6.20567C0 2.77838 2.77838 0 6.20567 0H35V2.48227H6.20567C4.14929 2.48227 2.48227 4.14929 2.48227 6.20567V38.1028H0V6.20567Z"/>
  </g>
</svg>
